<svg width="40" height="40" viewBox="0 0 36 36" fill="none" xmlns="http://www.w3.org/2000/svg">
<circle cx="18" cy="18" r="18" fill="black"/>
<path d="M12.752 26.48C12.192 26.48 11.768 26.336 11.48 26.048C11.208 25.76 11.072 25.392 11.072 24.944C11.072 24.608 11.128 24.256 11.24 23.888C11.368 23.52 11.488 23.144 11.6 22.76C11.712 22.36 11.768 21.976 11.768 21.608C11.768 21.16 11.672 20.856 11.48 20.696C11.304 20.52 11.08 20.432 10.808 20.432C10.312 20.432 9.808 20.64 9.296 21.056C8.784 21.456 8.288 21.976 7.808 22.616C7.328 23.24 6.88 23.888 6.464 24.56C6.048 25.232 5.68 25.832 5.36 26.36C5.104 26.36 4.864 26.312 4.64 26.216C4.4 26.136 4.216 26.008 4.088 25.832C4.088 25.752 4.176 25.504 4.352 25.088C4.512 24.672 4.704 24.16 4.928 23.552C5.152 22.944 5.352 22.32 5.528 21.68C5.704 21.04 5.792 20.456 5.792 19.928C5.888 19.816 6.04 19.704 6.248 19.592C6.456 19.48 6.672 19.424 6.896 19.424C7.328 19.424 7.544 19.632 7.544 20.048C7.544 20.304 7.472 20.736 7.328 21.344C7.184 21.936 7 22.56 6.776 23.216C7.208 22.56 7.688 21.912 8.216 21.272C8.76 20.616 9.336 20.072 9.944 19.64C10.552 19.208 11.16 18.992 11.768 18.992C12.392 18.992 12.84 19.216 13.112 19.664C13.4 20.112 13.544 20.608 13.544 21.152C13.544 21.648 13.464 22.112 13.304 22.544C13.144 22.96 12.976 23.368 12.8 23.768C12.64 24.152 12.56 24.544 12.56 24.944C12.56 25.28 12.624 25.52 12.752 25.664C12.896 25.792 13.072 25.856 13.28 25.856C13.68 25.856 14.08 25.672 14.48 25.304C14.88 24.92 15.264 24.44 15.632 23.864C16.016 23.288 16.352 22.704 16.64 22.112L16.904 22.424C16.408 23.592 15.816 24.56 15.128 25.328C14.44 26.096 13.648 26.48 12.752 26.48ZM28.2757 26.744C27.7157 26.744 27.3077 26.568 27.0517 26.216C26.7957 25.88 26.6677 25.472 26.6677 24.992C26.6677 24.592 26.7237 24.192 26.8357 23.792C26.9637 23.392 27.0837 23 27.1957 22.616C27.3237 22.232 27.3877 21.888 27.3877 21.584C27.3877 21.264 27.3157 21.04 27.1717 20.912C27.0277 20.784 26.8677 20.72 26.6917 20.72C26.2917 20.72 25.8517 21.032 25.3717 21.656C24.9077 22.28 24.2997 23.16 23.5477 24.296C23.2917 24.68 23.0757 25.072 22.8997 25.472C22.7237 25.856 22.5557 26.208 22.3957 26.528C22.2677 26.528 22.1077 26.512 21.9157 26.48C21.7237 26.448 21.5477 26.392 21.3877 26.312C21.2437 26.248 21.1717 26.16 21.1717 26.048C21.1717 25.936 21.2437 25.672 21.3877 25.256C21.5477 24.824 21.7237 24.328 21.9157 23.768C22.1237 23.192 22.2997 22.616 22.4437 22.04C22.6037 21.448 22.6837 20.944 22.6837 20.528C22.6837 20.256 22.6357 20.04 22.5397 19.88C22.4597 19.704 22.3077 19.616 22.0837 19.616C21.7317 19.616 21.3077 19.832 20.8117 20.264C20.3157 20.68 19.8037 21.232 19.2757 21.92C18.7477 22.608 18.2437 23.368 17.7637 24.2C17.2997 25.016 16.9237 25.832 16.6357 26.648C16.4117 26.648 16.1397 26.592 15.8197 26.48C15.4997 26.368 15.3397 26.256 15.3397 26.144C15.3397 26.048 15.4277 25.768 15.6037 25.304C15.7637 24.824 15.9557 24.256 16.1797 23.6C16.3877 22.928 16.5717 22.248 16.7317 21.56C16.9077 20.872 16.9957 20.264 16.9957 19.736C17.0917 19.624 17.2437 19.512 17.4517 19.4C17.6597 19.288 17.8757 19.232 18.0997 19.232C18.5317 19.232 18.7477 19.44 18.7477 19.856C18.7477 20.064 18.6837 20.424 18.5557 20.936C18.4437 21.432 18.2997 21.984 18.1237 22.592C18.4437 22.08 18.8037 21.56 19.2037 21.032C19.6197 20.488 20.0517 19.992 20.4997 19.544C20.9477 19.096 21.3957 18.736 21.8437 18.464C22.3077 18.176 22.7557 18.032 23.1877 18.032C23.6837 18.032 24.0197 18.216 24.1957 18.584C24.3877 18.936 24.4837 19.36 24.4837 19.856C24.4837 20.256 24.4357 20.68 24.3397 21.128C24.2597 21.56 24.1637 21.968 24.0517 22.352C23.9397 22.72 23.8357 23.016 23.7397 23.24C24.0757 22.632 24.4437 22.048 24.8437 21.488C25.2597 20.912 25.7077 20.448 26.1877 20.096C26.6677 19.728 27.1797 19.544 27.7237 19.544C28.2357 19.544 28.5877 19.696 28.7797 20C28.9877 20.304 29.0917 20.664 29.0917 21.08C29.0917 21.496 29.0197 21.952 28.8757 22.448C28.7317 22.944 28.5797 23.424 28.4197 23.888C28.2757 24.352 28.2037 24.752 28.2037 25.088C28.2037 25.296 28.2517 25.488 28.3477 25.664C28.4597 25.824 28.6517 25.904 28.9237 25.904C29.3717 25.904 29.7877 25.704 30.1717 25.304C30.5717 24.888 30.9397 24.392 31.2757 23.816C31.6117 23.224 31.8997 22.656 32.1397 22.112L32.4277 22.448C32.1717 23.12 31.8437 23.792 31.4437 24.464C31.0437 25.12 30.5717 25.664 30.0277 26.096C29.4997 26.528 28.9157 26.744 28.2757 26.744Z" fill="white"/>
<circle cx="18.5" cy="6.5" r="2.5" fill="#BA2316"/>
</svg>
